<svg width="472" height="356" viewBox="0 0 472 356" fill="none" xmlns="http://www.w3.org/2000/svg">
<path d="M231.563 341.666L28.0132 221.278C21.535 217.641 15.9772 211.654 22.2902 207.746L226.56 89.9204C229.628 88.0192 234.277 86.7794 237.392 88.5861L451.09 212.682C457.569 216.448 458.737 226.97 452.27 230.737L258.42 341.477C254.347 343.844 249.727 345.106 245.017 345.14C240.307 345.173 235.669 343.975 231.563 341.666Z" fill="#6182E0"/>
<path d="M253.299 292.802L209.367 320.009L180.139 295.908L236 281.029" fill="url(#paint0_linear_2_4)"/>
<path d="M298.87 206.34L185.543 269.15L96.0756 209.611L152.775 181.011" fill="url(#paint1_linear_2_4)"/>
<path d="M254.632 229.473L359.216 283.875L385.589 268.63L282.527 214.89L254.632 229.473Z" fill="#91AAE2"/>
<path d="M200.801 41.4111V59.5844L220.719 70.8969L221.368 50.2911" fill="#4A6EAF"/>
<path d="M229.911 47.6578V75.8093L220.719 70.8969L220.129 52.889" fill="#123582"/>
<path d="M200.801 41.4111L210.311 35.9438L229.911 47.6578L220.129 52.889L200.801 41.4111Z" fill="#254F99"/>
<path d="M138.591 123.291V194.709L225.533 244.706V173.277L138.591 123.291Z" fill="#68E1FD"/>
<path d="M225.533 173.277L262.998 93.1914L298.87 135.407V206.34L225.533 244.706V173.277Z" fill="#68E1FD"/>
<path opacity="0.53" d="M225.533 173.277L262.998 93.1914L298.87 135.407V206.34L225.533 244.706V173.277Z" fill="#2E818E"/>
<path d="M278.574 216.968V165.884L254.632 179.736V229.473L278.574 216.968Z" fill="#723B2E"/>
<path d="M278.574 165.884L282.527 163.157V214.89L278.574 216.968V165.884Z" fill="#FFC4B2"/>
<path d="M147.972 155.233L145.789 153.804V177.103L168.952 190.056L170.84 188.746" fill="#FFE7E1"/>
<path d="M147.972 155.233V175.756L170.84 188.746V169.262L147.972 155.233Z" fill="#723B2E"/>
<path d="M185.543 173.371L183.36 171.93V195.229L206.524 208.183L208.412 206.872" fill="#FFE7E1"/>
<path d="M185.543 173.371V193.882L208.412 206.872V187.388L185.543 173.371Z" fill="#723B2E"/>
<path d="M225.533 173.277L262.998 93.1914L173.767 40.1948L138.591 123.291L225.533 173.277Z" fill="#123582"/>
<path opacity="0.41" d="M355.593 243.277C357.127 243.018 358.366 243.053 358.968 243.75C357.894 254.377 365.529 249.182 368.88 251.862L371.759 250.681C377.58 244.848 383.433 239.054 389.317 233.299C387.3 231.847 385.353 230.3 383.417 228.765C373.751 232.809 364.443 237.664 355.593 243.277Z" fill="url(#paint2_linear_2_4)"/>
<path d="M390.132 233.382V181.011H378.78V233.842C382.674 234.988 386.816 235.165 390.132 233.382Z" fill="#A83F1E"/>
<path d="M385.589 181.153V234.799C387.174 234.697 388.721 234.267 390.132 233.535V181.153H385.589Z" fill="#7F2B14"/>
<path d="M400.291 185.912C407.371 185.569 416.446 183.019 413.791 175.119C412.221 170.395 407.395 166.333 404.351 162.625C401.306 158.917 401.991 156.438 398.451 152.824C401.389 152.942 405.649 152.387 406.368 149.482C407.006 146.932 393.306 131.297 387.382 124.956C386.731 124.255 385.838 123.825 384.884 123.755C383.93 123.685 382.984 123.979 382.237 124.578C375.157 130.199 357.162 145.172 359.676 149.482C361.198 152.08 364.266 153.025 367.004 153.226C360.525 159.732 353.127 167.857 352.383 176.524C351.734 184.034 359.463 185.038 366.543 184.648C361.599 190.659 348.183 207.793 351.203 212.989C352.82 215.728 358.024 216.637 361.104 217.251C367.783 218.607 374.585 219.264 381.4 219.212C388.247 219.308 395.064 218.279 401.578 216.165C405.187 215.034 408.533 213.191 411.419 210.745C414.569 207.781 412.811 204.628 410.77 201.652C407.277 196.445 403.784 191.178 400.291 185.912Z" fill="#77C457"/>
<path d="M398.462 152.824C398.462 152.824 389.837 152.257 383.83 152.423L414.263 177.457C414.263 177.457 415.077 174.552 409.696 168.589C405.542 163.639 401.786 158.367 398.462 152.824Z" fill="#0D5B23"/>
<path d="M400.291 185.912H382.591L411.501 210.71C412.377 210.079 412.99 209.148 413.225 208.095C413.46 207.041 413.3 205.938 412.776 204.994C410.852 201.617 400.291 185.912 400.291 185.912Z" fill="#0D5B23"/>
<path opacity="0.41" d="M68.676 227.123C69.738 226.946 70.5876 226.97 71.036 227.454C70.2926 234.787 75.5672 231.209 77.88 233.051L79.8624 232.225C83.8744 228.202 87.9139 224.203 91.981 220.227C90.5886 219.223 89.2434 218.161 87.8982 217.098C81.2196 219.891 74.7893 223.245 68.676 227.123Z" fill="url(#paint3_linear_2_4)"/>
<path d="M92.512 220.298V184.164H84.6414V220.617C87.2071 221.535 90.0289 221.421 92.512 220.298Z" fill="#A83F1E"/>
<path d="M89.3732 184.258V221.266C90.4687 221.196 91.5376 220.898 92.512 220.392V184.258H89.3732Z" fill="#7F2B14"/>
<path d="M99.5212 187.541C104.406 187.305 110.672 185.546 108.843 180.09C107.758 176.866 104.43 174.032 102.294 171.47C100.158 168.907 100.63 167.207 98.2586 164.704C100.288 164.786 103.226 164.408 103.722 162.342C104.159 160.582 94.7068 149.801 90.624 145.42C90.1742 144.94 89.5605 144.647 88.9047 144.599C88.2489 144.551 87.599 144.751 87.084 145.161C82.2106 149.046 69.7852 159.331 71.5198 162.342C72.57 164.137 74.6822 164.704 76.582 164.928C72.1098 169.415 67.0122 175.024 66.493 180.999C66.0446 186.183 71.3428 186.904 76.2752 186.608C72.865 190.753 63.602 202.573 65.7142 206.163C66.8234 208.053 70.4342 208.678 72.5464 209.104C77.1561 210.037 81.8501 210.488 86.553 210.45C91.2781 210.517 95.982 209.807 100.477 208.348C102.97 207.568 105.282 206.295 107.274 204.605C109.445 202.562 108.23 200.389 106.825 198.334C104.336 194.815 101.928 191.178 99.5212 187.541Z" fill="#77C457"/>
<path d="M98.2586 164.704C98.2586 164.704 92.3586 164.314 88.1578 164.42L109.15 181.708C109.15 181.708 109.705 179.7 105.999 175.591C103.136 172.172 100.548 168.531 98.2586 164.704Z" fill="#0D5B23"/>
<path d="M99.5212 187.541H87.32L107.25 204.687C107.854 204.252 108.277 203.609 108.438 202.882C108.599 202.154 108.487 201.393 108.123 200.743C106.802 198.405 99.5212 187.541 99.5212 187.541Z" fill="#0D5B23"/>
<path d="M200.01 283.651C201.296 283.651 203.09 285.009 204.258 285.587L207.468 287.158C207.468 287.158 209.615 295.128 210.831 298.045C212.046 300.962 216.447 307.338 214.925 309.724C213.881 311.174 212.328 312.175 210.578 312.528C208.827 312.88 207.008 312.558 205.485 311.625C201.45 309.417 201.568 302.025 200.093 299.143C198.913 296.782 199.455 291.716 199.455 290.629C199.347 288.289 199.534 285.944 200.01 283.651Z" fill="#181816"/>
<path d="M233.203 269.185C234.49 269.185 236.283 270.543 237.451 271.122L240.661 272.692C240.661 272.692 241.77 281.372 244.024 283.58C246.278 285.788 254.833 290.452 253.299 292.838C252.313 294.307 250.801 295.342 249.074 295.726C247.348 296.111 245.54 295.817 244.024 294.904C239.988 292.696 237.345 288.138 234.454 286.981C231.976 285.989 233.026 279.553 232.932 277.404C232.651 274.665 232.743 271.9 233.203 269.185Z" fill="#181816"/>
<path d="M238.974 188.002C238.974 188.002 244.472 217.334 243.977 233.429C243.481 249.524 243.198 269.221 241.971 277.947C241.971 277.947 231.351 279.435 227.705 276.235C227.705 276.235 226.631 219.837 226.525 220.168C224.896 227.584 217.238 265.595 216.424 268.075C215.61 270.555 211.704 290.594 211.704 290.594C209.137 291.232 206.466 291.334 203.857 290.896C201.249 290.457 198.758 289.486 196.541 288.043C196.541 288.043 197.874 259.183 200.34 251.083C202.807 242.982 211.421 192.04 215.598 188.014" fill="#68E1FD"/>
<path opacity="0.67" d="M238.974 188.002C238.974 188.002 244.472 217.334 243.977 233.429C243.481 249.524 243.198 269.221 241.971 277.947C241.971 277.947 231.351 279.435 227.705 276.235C227.705 276.235 226.631 219.837 226.525 220.168C224.896 227.584 217.238 265.595 216.424 268.075C215.61 270.555 211.704 290.594 211.704 290.594C209.137 291.232 206.466 291.334 203.857 290.896C201.249 290.457 198.758 289.486 196.541 288.043C196.541 288.043 197.874 259.183 200.34 251.083C202.807 242.982 211.421 192.04 215.598 188.014" fill="#181816"/>
<path d="M215.94 190.352C215.94 190.352 206.5 162.921 210.323 156.65C214.146 150.38 229.392 145.432 236.72 146.023C244.048 146.613 239.339 189.986 238.183 190.304C237.027 190.623 226.171 198.074 215.94 190.352Z" fill="#F7931E"/>
<path d="M212.778 153.828L224.212 149.105C226.289 159.165 228.44 169.207 230.666 179.228L214.689 182.039C214.689 182.039 205.178 176.796 203.715 168.494C202.252 160.193 212.4 154.218 212.778 153.828Z" fill="#F7931E"/>
<path d="M235.835 162.59C235.835 162.59 237.357 147.605 237.357 146.282C241.806 147.555 245.966 149.68 249.605 152.541C251.464 153.981 253.193 155.582 254.774 157.323C255.861 158.341 256.763 159.54 257.441 160.866C257.908 162.448 257.952 164.126 257.57 165.731C256.859 169.442 255.594 173.024 253.818 176.359C251.953 180.257 249.648 183.93 246.95 187.305C246.113 188.332 243.41 192.158 241.652 191.544C238.112 190.363 236.661 186.195 236.661 186.195C236.661 186.195 238.289 182.983 240.047 179.016C241.086 176.654 245.77 171.328 246.408 167.679C245.942 167.054 245.438 166.458 244.897 165.896C242.596 163.676 238.726 164.101 235.835 162.59Z" fill="#F7931E"/>
<path d="M234.501 147.133L232.141 158.941L228.92 155.127L226.454 159.85L219.846 150.876C219.846 150.876 230.029 146.117 234.501 147.133Z" fill="#ED6B00"/>
<path d="M221.84 141.866C223.551 143.767 226.855 142.905 229.026 142.421C231.658 141.831 234.69 140.225 234.454 137.072C234.454 136.599 235.15 136.599 235.186 137.072C235.422 140.343 232.448 142.315 229.628 142.976C227.115 143.602 223.315 144.547 221.368 142.327C220.943 142.031 221.462 141.512 221.84 141.866Z" fill="#009245"/>
<path d="M235.835 135.088C235.835 135.088 235.835 151.112 229.935 152.151C223.48 153.332 219.858 145.964 219.858 145.964C219.858 145.964 219.032 131.793 225.439 130.613C231.846 129.432 235.658 133.045 235.835 135.088Z" fill="#FBB5AD"/>
<path d="M224.436 144.369C224.436 144.369 222.878 138.217 221.167 140.248C219.456 142.279 223.952 146.696 223.952 146.696" fill="#FBB5AD"/>
<path d="M222.878 128.57C222.878 128.57 217.144 129.184 215.48 133.754C213.816 138.323 218.099 147.404 221.167 148.821L217.45 140.85L217.639 135.419L222.878 128.57Z" fill="#5C2E2E"/>
<path d="M217.321 143.944C218.274 145.808 219.58 147.469 221.167 148.833C220.778 146.814 220.542 144.901 221.557 143.165C221.593 143.104 221.642 143.053 221.702 143.015C221.761 142.977 221.829 142.954 221.899 142.947C221.969 142.94 222.04 142.95 222.105 142.975C222.171 143.001 222.23 143.042 222.277 143.094C222.889 142.966 223.524 143.003 224.117 143.2C224.377 142.539 224.601 142.02 224.684 141.866C225.864 141.866 227.528 141.181 227.681 139.977C227.87 138.512 229.262 140.26 232.2 139.587C233.9 139.197 233.64 138.087 233.109 137.225C233.784 137.811 234.596 138.217 235.469 138.406C237.204 138.713 239.245 138.075 239.658 136.151C239.795 135.325 239.658 134.478 239.268 133.738C238.878 132.998 238.257 132.406 237.499 132.053C236.793 131.703 236.004 131.56 235.221 131.64C234.618 130.726 233.81 129.965 232.861 129.42C230.293 127.984 227.292 127.526 224.412 128.133C224.57 127.839 224.662 127.515 224.68 127.182C224.698 126.85 224.643 126.517 224.519 126.208C224.498 126.139 224.46 126.076 224.408 126.026C224.356 125.975 224.293 125.939 224.223 125.92C224.153 125.901 224.08 125.9 224.01 125.918C223.94 125.935 223.875 125.97 223.822 126.019C223.289 126.524 222.85 127.12 222.524 127.778C222.29 127.503 222.002 127.279 221.677 127.12C221.352 126.962 220.998 126.872 220.636 126.857C220.564 126.859 220.493 126.879 220.43 126.916C220.367 126.953 220.315 127.005 220.278 127.068C220.242 127.131 220.222 127.202 220.22 127.275C220.219 127.347 220.236 127.419 220.271 127.483C220.56 128.11 220.988 128.663 221.521 129.101L220.837 129.467C218.064 131.097 215.952 132.655 215.48 135.855C215.288 138.674 215.928 141.487 217.321 143.944ZM223.598 127.932C223.598 127.802 223.704 127.672 223.752 127.53C223.758 127.487 223.758 127.444 223.752 127.401L223.87 127.223C223.84 127.479 223.746 127.722 223.598 127.932Z" fill="#5C2E2E"/>
<path d="M231.327 157.914L229.604 161.291L227.185 158.492L228.932 155.127L231.327 157.914Z" fill="#723100"/>
<path d="M229.604 161.291C229.604 161.291 227.174 178.295 225.026 189.372L228.153 195.276L232.2 190.257C232.2 190.257 233.841 178.673 229.604 161.291Z" fill="#723100"/>
<path d="M229.25 190.328L231.54 165.554L248.567 165.944L246.183 190.328H229.25Z" fill="#68E1FD"/>
<path d="M223.445 180.562L230.82 175.024V177.103C230.82 177.103 237.522 174.103 237.9 175.414C238.277 176.725 237.027 181.094 235.894 181.495C234.761 181.897 229.994 183.408 229.994 183.408L226.253 184.589L223.445 180.562Z" fill="#FBB5AD"/>
<path d="M203.668 165.554C203.668 165.554 198.854 184.176 202.158 187.99C205.462 191.804 226.938 187.671 227.185 185.746C227.433 183.822 224.436 177.551 224.436 177.551L212.4 178.862" fill="#F7931E"/>
<path d="M240.331 190.316C240.331 190.316 235.847 189.56 234.938 192.052C234.454 193.375 237.923 192.052 237.923 192.052L240.378 199.362C241.122 198.441 241.538 197.298 241.558 196.114C241.571 194.442 241.417 192.773 241.098 191.131L240.331 190.316Z" fill="#FBB5AD"/>
<path d="M331.132 257.259L282.527 291.149L272.804 281.029L328.465 251.874" fill="url(#paint4_linear_2_4)"/>
<path d="M339.722 208.265L334.778 205.679L333.763 207.935L337.02 209.611" fill="#700531"/>
<path d="M291.389 256.975V276.566C291.61 277.077 291.997 277.497 292.488 277.759C292.979 278.021 293.544 278.108 294.091 278.006C296.263 277.829 296.711 276.825 296.711 276.825V254.991" fill="#E7E0E8"/>
<path d="M325.81 237.385V256.975C326.03 257.486 326.418 257.907 326.909 258.169C327.4 258.431 327.965 258.518 328.512 258.416C330.683 258.239 331.132 257.235 331.132 257.235V235.401" fill="#E7E0E8"/>
<path d="M275.105 239.676V256.361C275.104 257.161 275.314 257.948 275.714 258.641C276.114 259.334 276.69 259.909 277.383 260.307C278.076 260.706 278.863 260.915 279.662 260.913C280.462 260.91 281.247 260.697 281.937 260.293L334.754 229.65C335.443 229.251 336.015 228.678 336.412 227.987C336.81 227.297 337.02 226.515 337.02 225.718V209.611C337.021 208.814 336.813 208.031 336.417 207.34C336.02 206.648 335.449 206.074 334.761 205.673C334.072 205.272 333.291 205.06 332.494 205.057C331.698 205.054 330.915 205.26 330.223 205.656L277.406 235.72C276.707 236.117 276.126 236.692 275.722 237.387C275.318 238.082 275.105 238.872 275.105 239.676Z" fill="#700531"/>
<path d="M277.831 260.518L283.448 263.434L283.2 260.022L279.33 259.372L277.831 260.518Z" fill="#700531"/>
<path d="M280.663 242.557V259.242C280.662 260.043 280.872 260.829 281.272 261.522C281.672 262.215 282.248 262.79 282.941 263.189C283.634 263.588 284.42 263.797 285.22 263.794C286.02 263.792 286.804 263.578 287.495 263.175L340.312 232.532C341.001 232.132 341.573 231.559 341.97 230.869C342.368 230.179 342.577 229.396 342.578 228.599V212.493C342.579 211.696 342.371 210.912 341.975 210.221C341.578 209.53 341.007 208.955 340.319 208.554C339.63 208.153 338.848 207.941 338.052 207.938C337.256 207.935 336.472 208.141 335.781 208.537L282.964 238.601C282.265 238.998 281.684 239.573 281.28 240.268C280.875 240.963 280.663 241.753 280.663 242.557Z" fill="#CD1155"/>
<path d="M297.207 237.716C299.685 236.31 300.747 237.349 300.747 237.397L299.13 240.266C298.886 240.091 298.593 239.997 298.292 239.997C297.992 239.997 297.699 240.091 297.454 240.266C297.156 240.434 296.9 240.671 296.71 240.956C296.519 241.241 296.398 241.567 296.357 241.908C296.357 243.525 301.077 239.995 301.077 244.187C300.964 245.489 300.528 246.742 299.809 247.832C299.09 248.923 298.11 249.817 296.959 250.433C294.268 251.957 292.959 250.752 292.888 250.693L294.504 247.824C294.819 248.06 295.202 248.188 295.596 248.188C295.99 248.188 296.373 248.06 296.687 247.824C297.055 247.619 297.367 247.329 297.597 246.977C297.827 246.625 297.968 246.223 298.009 245.804C298.009 244.175 293.289 247.717 293.289 243.525C293.438 242.316 293.87 241.16 294.551 240.15C295.232 239.14 296.142 238.306 297.207 237.716Z" fill="white"/>
<path d="M308.523 231.67L312.322 241.447L309.325 243.136L308.617 240.975L305.266 242.876L304.511 245.863L301.514 247.552L305.455 233.382L308.523 231.67ZM305.998 239.936L307.897 238.861L306.977 235.885L306.009 239.924" fill="white"/>
<path d="M316.334 227.253L316.275 236.299L320.807 233.748L320.783 236.653L313.491 240.774L313.561 228.812L316.334 227.253Z" fill="white"/>
<path d="M330.211 219.401L330.199 222.14L325.078 225.033L325.066 226.911L329.019 224.679L328.996 227.241L325.055 229.473L325.043 231.528L330.294 228.552L330.282 231.292L322.258 235.826L322.329 223.864L330.211 219.401Z" fill="white"/>
<defs>
<linearGradient id="paint0_linear_2_4" x1="210.406" y1="298.706" x2="252.764" y2="269.521" gradientUnits="userSpaceOnUse">
<stop stop-color="#003B94" stop-opacity="0"/>
<stop offset="1" stop-color="#42210B"/>
</linearGradient>
<linearGradient id="paint1_linear_2_4" x1="170.616" y1="251.98" x2="204.541" y2="196.49" gradientUnits="userSpaceOnUse">
<stop stop-color="#003B94" stop-opacity="0"/>
<stop offset="1" stop-color="#42210B"/>
</linearGradient>
<linearGradient id="paint2_linear_2_4" x1="365.175" y1="246.029" x2="377.775" y2="232.647" gradientUnits="userSpaceOnUse">
<stop stop-color="#003B94" stop-opacity="0"/>
<stop offset="1" stop-color="#42210B"/>
</linearGradient>
<linearGradient id="paint3_linear_2_4" x1="75.2958" y1="229.013" x2="83.9872" y2="219.785" gradientUnits="userSpaceOnUse">
<stop stop-color="#FF734D" stop-opacity="0"/>
<stop offset="1" stop-color="#42210B"/>
</linearGradient>
<linearGradient id="paint4_linear_2_4" x1="296.05" y1="273.401" x2="338.668" y2="244.038" gradientUnits="userSpaceOnUse">
<stop stop-color="#003B94" stop-opacity="0"/>
<stop offset="1" stop-color="#42210B"/>
</linearGradient>
</defs>
</svg>
