<svg width="574" height="546" viewBox="0 0 574 546" fill="none" xmlns="http://www.w3.org/2000/svg">
<path d="M103.663 85.1676C76.0194 66.0369 50.2902 135.788 18.1473 109.729C1.30743 96.0768 -6.36845 44.3099 9.99997 -2.28623e-05L574 -6.65277e-06L574 539C554.484 548.293 534.902 548.983 517.677 534.998C459.111 487.442 566.656 411.379 523.541 381.139C489.552 357.3 424.746 467.498 387.964 440.392C336.764 402.66 432.676 279.941 387.088 249.866C347.412 223.691 306.599 345.051 261.819 318.83C214.742 291.263 309.314 184.66 264.304 161.071C202.422 128.64 160.991 245.686 119.895 217.07C78.798 188.453 146.873 115.071 103.663 85.1676Z" fill="white"/>
</svg>
